<?xml version="1.0" encoding="UTF-8"?>
<svg width="50px" height="50px" viewBox="0 0 50 50" version="1.1" xmlns="http://www.w3.org/2000/svg" xmlns:xlink="http://www.w3.org/1999/xlink">
    <!-- Generator: Sketch 47.1 (45422) - http://www.bohemiancoding.com/sketch -->
    <title>Page 1</title>
    <desc>Created with Sketch.</desc>
    <defs></defs>
    <g id="––-Explore" stroke="none" stroke-width="1" fill="none" fill-rule="evenodd">
        <g id="Model/-Explore/-2.0-Explore-1920px" transform="translate(-935.000000, -7600.000000)" fill="#FFFFFF">
            <path d="M984.778487,7600.96087 C984.727884,7600.85075 984.689934,7600.83131 984.66674,7600.79245 C984.571861,7600.65426 984.472761,7600.53118 984.344146,7600.42321 C984.289328,7600.38219 984.238725,7600.35196 984.181797,7600.31093 C984.055287,7600.22888 983.924568,7600.15547 983.770649,7600.10796 C983.698963,7600.08637 983.629383,7600.07773 983.557697,7600.06262 C983.460707,7600.04534 983.372154,7600 983.273059,7600 C983.045349,7600.03887 982.969443,7600.06046 982.891431,7600.08205 C982.743838,7600.1166 982.606793,7600.15547 982.484499,7600.22673 C982.464819,7600.23536 977.565501,7603.15471 967.786545,7608.98478 L953.056983,7600.25484 C952.911501,7600.18575 952.803969,7600.14472 952.696438,7600.11017 C952.635294,7600.0929 952.582581,7600.0821 952.521436,7600.0713 C952.458182,7600.06051 952.403364,7600.04323 952.34433,7600.04108 C952.148245,7600.01085 952.108184,7600.03892 952.055471,7600.04539 C951.992216,7600.04971 951.933182,7600.06267 951.863602,7600.07562 C951.796131,7600.08642 951.737092,7600.09938 951.667517,7600.12529 C951.58529,7600.15336 951.496731,7600.19222 951.42083,7600.23325 C951.39834,7600.24189 946.20515,7603.33256 935.841261,7609.50528 C935.613552,7609.68882 935.512346,7609.77951 935.419577,7609.89178 C935.347892,7609.97384 935.297289,7610.06453 935.242471,7610.16169 C935.18976,7610.25022 935.145481,7610.33875 935.109641,7610.4424 C935.063255,7610.58275 935.042171,7610.72094 935.029518,7610.86777 C935.023896,7610.90232 935.014056,7623.35475 935,7648.22508 C935.025301,7648.45828 935.061145,7648.60943 935.109639,7648.77353 C935.128615,7648.84263 935.145483,7648.90525 935.179219,7648.97219 C935.202412,7649.02185 935.202412,7649.07799 935.229822,7649.12549 C935.267774,7649.19027 935.335243,7649.21834 935.377414,7649.27232 C935.476509,7649.40188 935.586151,7649.52064 935.716876,7649.61349 C935.80754,7649.68475 935.883441,7649.756 935.988868,7649.80566 C936.151217,7649.88124 936.328329,7649.9201 936.511762,7649.94602 C936.581343,7649.95682 936.642487,7650 936.714173,7650 C937.070502,7649.95466 937.28978,7649.88988 937.485843,7649.78839 C937.505522,7649.77688 942.411233,7646.86046 952.202977,7641.03913 L966.928221,7649.76464 C967.227616,7649.88772 967.425812,7649.94386 967.64089,7649.96114 C967.691493,7649.96761 967.73577,7649.99784 967.790588,7649.99784 C968.134265,7649.94386 968.347217,7649.88772 968.543318,7649.79271 C968.612192,7649.774 973.811707,7646.68262 984.141865,7640.51858 C984.209335,7640.48187 984.247286,7640.41925 984.306325,7640.36742 C984.399099,7640.29833 984.491868,7640.22275 984.563554,7640.13422 C984.63735,7640.04785 984.685842,7639.96148 984.738556,7639.86647 C984.803915,7639.76066 984.848192,7639.66566 984.886148,7639.55337 C984.924099,7639.44757 984.938856,7639.33745 984.953618,7639.22517 C984.962049,7639.14959 985,7639.07186 985,7638.99196 L984.995784,7601.78375 C984.96416,7601.56134 984.93464,7601.47281 984.915662,7601.37997 C984.879692,7601.23078 984.841742,7601.09258 984.778487,7600.96087 Z M938,7612.13232 L951,7605 L951,7637.86768 L938,7645 L938,7612.13232 Z M954,7605 L966,7612.08663 L966,7645 L954,7637.91337 L954,7605 Z M969,7612.13052 L982,7605 L982,7637.86948 L969,7645 L969,7612.13052 Z" id="Page-1"></path>
        </g>
    </g>
</svg>