<?xml version="1.0" encoding="UTF-8"?>
<svg width="38px" height="53px" viewBox="0 0 38 53" version="1.1" xmlns="http://www.w3.org/2000/svg" xmlns:xlink="http://www.w3.org/1999/xlink">
    <!-- Generator: Sketch 47.1 (45422) - http://www.bohemiancoding.com/sketch -->
    <title>Combined Shape</title>
    <desc>Created with Sketch.</desc>
    <defs></defs>
    <g id="––-Explore" stroke="none" stroke-width="1" fill="none" fill-rule="evenodd">
        <g id="Model/-Explore/-2.0-Explore-1920px" transform="translate(-616.000000, -7381.000000)" fill="#FFFFFF">
            <path d="M629.493417,7422.25586 C621.164472,7411.57249 617,7403.58054 617,7398.28 C617,7388.73652 625.058875,7381 635,7381 C644.941125,7381 653,7388.73652 653,7398.28 C653,7403.58054 648.835528,7411.57249 640.506583,7422.25586 C648.314794,7423.00131 654,7425.291 654,7428 C654,7431.31371 645.49341,7434 635,7434 C624.50659,7434 616,7431.31371 616,7428 C616,7425.291 621.685206,7423.00131 629.493417,7422.25586 Z M638.265782,7425.07131 C637.231626,7426.34569 636.143032,7427.65525 635,7429 C633.856968,7427.65525 632.768374,7426.34569 631.734218,7425.07131 C625.020351,7425.36945 620,7426.56747 620,7428 C620,7429.65685 626.715729,7431 635,7431 C643.284271,7431 650,7429.65685 650,7428 C650,7426.56747 644.979649,7425.36945 638.265782,7425.07131 Z M635,7424 C645,7412.38579 650,7403.90094 650,7398.54545 C650,7390.51222 643.284271,7384 635,7384 C626.715729,7384 620,7390.51222 620,7398.54545 C620,7403.90094 625,7412.38579 635,7424 Z M635,7405 C631.134007,7405 628,7401.86599 628,7398 C628,7394.13401 631.134007,7391 635,7391 C638.865993,7391 642,7394.13401 642,7398 C642,7401.86599 638.865993,7405 635,7405 Z M635,7402 C637.209139,7402 639,7400.20914 639,7398 C639,7395.79086 637.209139,7394 635,7394 C632.790861,7394 631,7395.79086 631,7398 C631,7400.20914 632.790861,7402 635,7402 Z" id="Combined-Shape"></path>
        </g>
    </g>
</svg>