<?xml version="1.0" encoding="utf-8"?>
<!-- Generator: Adobe Illustrator 17.0.2, SVG Export Plug-In . SVG Version: 6.00 Build 0)  -->
<!DOCTYPE svg PUBLIC "-//W3C//DTD SVG 1.1//EN" "http://www.w3.org/Graphics/SVG/1.1/DTD/svg11.dtd">
<svg version="1.1" id="Layer_1" xmlns="http://www.w3.org/2000/svg" xmlns:xlink="http://www.w3.org/1999/xlink" x="0px" y="0px"
	 width="400.342px" height="83.492px" viewBox="0 0 400.342 83.492" enable-background="new 0 0 400.342 83.492"
	 xml:space="preserve">
<g>
	<g>
		<path fill="#FFFFFF" d="M220.637,54.771V7.972h-8.281c-3.083,0-4.177,1.533-6.164,4.317l-12.83,18.095L179.177,7.972h-8.911
			c-2.968,0-3.408,2.684-3.408,4.287v42.512h10.205V23.946L190.9,44.676h4.337L209.75,24.06v30.71H220.637z"/>
		<path fill="#FFFFFF" d="M243.191,40.337c1.646,0,7.446-0.184,12.888-2.578c7-3.078,10.55-8.466,10.55-16.013
			c0-4.143-1.664-13.777-17.098-13.777H233.47c-2.965,0-3.408,2.688-3.408,4.289v42.512h12.441V40.335h0.318
			C242.884,40.335,243.001,40.337,243.191,40.337 M242.503,32.559V15.733h4.247c7.827,0,8.995,4.62,8.995,7.37
			c0,9.015-10.467,9.473-12.566,9.473c-0.238,0-0.371-0.006-0.371-0.006L242.503,32.559z"/>
		<path fill="#FFFFFF" d="M157.429,7.972h-9.036c-2.965,0-3.407,2.687-3.407,4.287V37.47c0,8.438-4.558,10.211-8.384,10.211
			c-3.824,0-8.383-1.772-8.383-10.211V7.972h-9.034c-2.963,0-3.407,2.687-3.407,4.287v26.16c0,8.233,3.613,18.048,20.824,18.048
			c17.211,0,20.827-9.814,20.827-18.048V7.972z"/>
		<path fill="#FFFFFF" d="M93.909,54.771h12.441v-46.8h-9.033c-2.967,0-3.409,2.684-3.409,4.287V54.771z"/>
		<path fill="#FFFFFF" d="M317.923,54.762V7.979h-9.028c-2.964,0-3.408,2.686-3.408,4.286v7.814l-0.255,0.05
			c-5.745,1.107-11.544,3.319-17.736,6.764l-0.473,0.264V7.979h-9.033c-2.965,0-3.408,2.686-3.408,4.286v23.184l-0.127,0.094
			c-1.92,1.447-3.715,2.865-5.295,4.111l-0.389,0.306c-32.229,25.304-64.338,36.714-104.113,36.987
			c-0.414,0.006-0.837,0.006-1.254,0.006c-18.329,0.001-35.92-3.045-50.872-8.812C95.13,61.43,81.984,51.418,73.461,38.378
			l-0.206-0.316l0.351-0.15c7.216-3.051,10.878-8.487,10.878-16.153c0-4.144-1.666-13.775-17.093-13.775H51.335
			c-2.963,0-3.407,2.688-3.407,4.287v42.498h12.572V40.326l0.328,0.009c0.005,0,0.273,0.01,0.739,0l0.153,0l0.1,0.116
			c16.385,19.635,47.524,43.041,102.835,43.041c41.383,0,75.13-11.566,109.411-37.5l0.514-0.387v9.156h12.441V36.551l0.146-0.094
			c6.643-4.289,12.35-6.689,17.951-7.545l0.367-0.055v25.905H317.923z M61.171,32.579c-0.236,0-0.367-0.007-0.367-0.007
			l-0.304-0.011V15.745h4.113c7.822,0,8.988,4.615,8.988,7.366C73.602,32.124,63.249,32.579,61.171,32.579"/>
		<path fill="#FFFFFF" d="M42.256,7.972H3.344C0.58,7.972,0,10.304,0,12.257V19.1h14.84v35.668h12.508V19.1h11.496
			c2.968,0,3.412-2.689,3.412-4.289V7.972z"/>
	</g>
</g>
<g>
	<path fill="#FFFFFF" d="M393.44,0h-56.15c-0.547,0-1.03,0.029-1.475,0.087c-0.494,0.065-0.946,0.167-1.383,0.312l-0.016,0.004
		c-0.846,0.289-1.583,0.711-2.186,1.252c-0.647,0.579-1.134,1.286-1.449,2.102c-0.191,0.491-0.314,1.023-0.365,1.579
		c-0.048,0.511-0.034,1.043,0.039,1.581c0.071,0.511,0.194,1.031,0.368,1.544c0.171,0.505,0.393,1.004,0.656,1.488l0.022,0.039
		l28.014,48.854c0.338,0.592,0.682,1.095,1.05,1.536c0.201,0.24,0.412,0.465,0.627,0.666c0.228,0.215,0.468,0.409,0.714,0.581
		c0.514,0.359,1.073,0.632,1.665,0.808c0.561,0.169,1.165,0.253,1.793,0.253c0.631,0,1.233-0.084,1.796-0.253
		c0.59-0.176,1.15-0.448,1.664-0.808c0.246-0.172,0.486-0.366,0.713-0.581c0.215-0.201,0.426-0.426,0.626-0.666
		c0.37-0.441,0.713-0.944,1.053-1.536l28.011-48.854l0.024-0.039c0.264-0.484,0.485-0.983,0.655-1.488
		c0.175-0.513,0.299-1.033,0.368-1.544c0.073-0.539,0.087-1.07,0.041-1.581c-0.052-0.556-0.176-1.087-0.366-1.579l0,0
		c-0.316-0.816-0.804-1.524-1.448-2.102c-0.605-0.542-1.341-0.963-2.188-1.252l-0.015-0.004c-0.436-0.145-0.89-0.247-1.383-0.312
		C394.471,0.029,393.988,0,393.44,0L393.44,0z"/>
	<path d="M337.29,2.409c-0.875,0-1.523,0.085-2.096,0.277c-1.081,0.368-1.81,1.021-2.166,1.944
		c-0.447,1.148-0.234,2.704,0.565,4.162l28.013,48.852c1.054,1.846,2.178,2.634,3.758,2.634c1.581,0,2.705-0.788,3.76-2.634
		l28.013-48.852c0.801-1.458,1.012-3.014,0.566-4.162c-0.358-0.922-1.087-1.576-2.167-1.944c-0.572-0.192-1.223-0.277-2.096-0.277
		H337.29z"/>
	<g>
		<polygon fill="#FFFFFF" points="376.534,23.517 383.147,27.107 384.493,24.761 376.534,20.654 386.849,20.654 388.916,17.046 
			372.926,17.046 372.926,44.934 376.534,38.639 		"/>
	</g>
	<g>
		<polygon fill="#FFFFFF" points="354.196,23.517 347.583,27.107 346.237,24.761 354.196,20.654 343.883,20.654 341.815,17.046 
			357.805,17.046 357.805,44.934 354.196,38.639 		"/>
	</g>
</g>
</svg>
